<svg xmlns="http://www.w3.org/2000/svg" xmlns:xlink="http://www.w3.org/1999/xlink" xmlns:lucid="lucid" width="1048.82" height="1318.5"><g transform="translate(-302.3839177089356 -162.50278758948184)" lucid:page-tab-id=".Q4MUjXso07N"><path d="M1325.93 359.34c0 10.9-8.84 19.75-19.75 19.75-10.9 0-19.75-8.85-19.75-19.76 0-10.9 8.84-19.75 19.75-19.75 10.9 0 19.75 8.83 19.75 19.74z" stroke="#3a414a" stroke-width="4" fill="#fff"/><path d="M1306.18 379.1v49.3a19.48 19.48 0 0 0 3.38 10.95l39.64 58.24m-43.02-63.2l-43.02 63.2m0-98.76h86.04" stroke="#3a414a" stroke-width="4" fill="none"/><path d="M1263.16 345.6a6 6 0 0 1 6-6h74.04a6 6 0 0 1 6 6v168a6 6 0 0 1-6 6h-74.04a6 6 0 0 1-6-6z" fill="none"/><use xlink:href="#a" transform="matrix(1,0,0,1,1183.1632409792478,497.5899933665846) translate(86.89013020833335 20.22104166666666)"/><path d="M529.62 171.5a8 8 0 0 1 8-8h657.54a8 8 0 0 1 8 8V1472a8 8 0 0 1-8 8H537.62a8 8 0 0 1-8-8z" stroke="#000" stroke-opacity="0" stroke-width="2" fill="#edf5ff"/><use xlink:href="#b" transform="matrix(1,0,0,1,537.6214937276677,171.50278758948184) translate(205.07265625 28.02916666666667)"/><use xlink:href="#c" transform="matrix(1,0,0,1,537.6214937276677,171.50278758948184) translate(290.8695963541667 28.02916666666667)"/><path d="M790.38 318.15c0 28.22-33.66 51.1-75.2 51.1-41.52 0-75.18-22.88-75.18-51.1 0-28.23 33.66-51.1 75.2-51.1 41.5 0 75.18 22.87 75.18 51.1z" stroke="#000" fill="#4d9eff"/><use xlink:href="#d" transform="matrix(1,0,0,1,662.5567759408499,287.48303755714903) translate(20.590771484374997 37.089501953125)"/><path d="M1160 340c0 33.14-35.82 60-80 60s-80-26.86-80-60 35.82-60 80-60 80 26.86 80 60z" stroke="#000" fill="#4d9eff"/><use xlink:href="#e" transform="matrix(1,0,0,1,1024,304) translate(18.0284814453125 42.089501953125)"/><path d="M900.48 830.1h-.96v-11.5h.96zm-10-44.5l.05.7.17.7.27.66.37.6.46.54.54.46.6.38.66.27.7.17.74.06.82.07.83.2.8.33.72.44.65.56.56.66.45.72.33.8.2.83.08.84v11.5h-.96v-11.48l-.05-.72-.17-.7-.27-.65-.37-.6-.46-.54-.54-.45-.6-.38-.66-.27-.7-.16-.74-.06-.82-.07-.83-.2-.8-.32-.72-.45-.65-.55-.56-.66-.45-.73-.33-.8-.2-.84-.08-.84v-9.67h.96zm0-19.3h-.96v-19.32h.96zm0-28.98h-.96V718h.96zm0-28.98h-.96v-19.3h.96zm0-28.97h-.96v-19.3h.96zm0-28.97h-.96v-14.12h.96zm0-39.37h-.96v-8.92h.96zm0-18.57h-.96v-19.32h.96zm0-28.98h-.96v-19.3h.96zm-10.53-50.95l1.9.46 1.8.74 1.68 1.02 1.5 1.27 1.26 1.5 1.02 1.66.75 1.8.45 1.9.15 1.94v9.67h-.95v-9.63l-.14-1.82-.42-1.76-.7-1.68-.94-1.54-1.17-1.38-1.38-1.17-1.54-.94-1.67-.7-1.76-.43-1.82-.14h-8.62v-.95h8.66zm-19.23.8h-17.28v-.95h17.28zm-25.92 0h-17.28v-.95h17.28zm-25.92 0h-8.64v-.95h8.64z" stroke="#333" stroke-width=".05" fill="#333"/><path d="M900.48 830.62h-.95v-.53h.96z" fill="#333"/><path stroke="#333" stroke-width=".05" fill="#333"/><path d="M799.74 517.5l-14.26-4.65 14.26-4.63z" fill="#333"/><path d="M800.2 518.14l-16.26-5.3 16.27-5.28zm-13.2-5.3l12.26 4v-7.97z" stroke="#333" stroke-width=".05" fill="#333"/><use xlink:href="#f" transform="matrix(1,0,0,1,826.5493473307291,611.0292264456625) translate(0.005000000000002558 20.221041666666665)"/><path d="M1303.68 418.35h-59.35a12 12 0 0 1-12-12v-53.8a12 12 0 0 0-12-12h-59.35M1303.67 418.35h3.5" stroke="#333" fill="none"/><path d="M1161 341.03h-.53l.03-.95h.5z" stroke="#333" stroke-width=".05" fill="#333"/><path d="M358.13 268.32c0 6.23-5.05 11.27-11.28 11.27-6.23 0-11.28-5.06-11.28-11.28 0-6.23 5.05-11.28 11.28-11.28 6.23 0 11.28 5.05 11.28 11.28z" stroke="#3a414a" stroke-width="4" fill="#fff"/><path d="M346.85 279.6v25.57a18.1 18.1 0 0 0 3.58 10.8l23.27 31.28m-26.85-36.08L320 347.25m0-56.38h53.7" stroke="#3a414a" stroke-width="4" fill="none"/><path d="M320 263.04a6 6 0 0 1 6-6h41.7a6 6 0 0 1 6 6v100.2a6 6 0 0 1-6 6H326a6 6 0 0 1-6-6z" fill="none"/><use xlink:href="#g" transform="matrix(1,0,0,1,240,347.2503442009378) translate(83.71114908854167 20.22104166666666)"/><path d="M790.38 491.1c0 28.23-33.66 51.1-75.2 51.1-41.52 0-75.18-22.87-75.18-51.1 0-28.22 33.66-51.1 75.2-51.1 41.5 0 75.18 22.88 75.18 51.1z" stroke="#000" fill="#4d9eff"/><use xlink:href="#h" transform="matrix(1,0,0,1,662.5567759408499,460.4418266609472) translate(31.143183593750003 37.089501953125)"/><path d="M342.38 313.15h-27.5a12 12 0 0 0-12 12V479.1a12 12 0 0 0 12 12h308.24M342.37 313.15h3.5" stroke="#333" fill="none"/><path d="M637.88 491.1l-14.26 4.64v-9.27z" stroke="#333" fill="#333"/><path d="M347.54 314.27h143.8a1.94 1.94 0 0 1 1.93 1.94 1.94 1.94 0 0 0 1.94 1.95h127.92M347.55 314.27h-3.5" stroke="#333" fill="none"/><path d="M637.88 318.15l-14.26 4.63v-9.27z" stroke="#333" fill="#333"/><path d="M715.66 423.12h-.95v-5.87h.96zm0-31.12h-.95v-4.13h.96zm0-12.94h-.95v-8.8h.96z" stroke="#333" stroke-width=".05" fill="#333"/><path d="M715.2 369.75h.46v.5h-.95v-.5z" fill="#333"/><path stroke="#333" stroke-width=".05" fill="#333"/><path d="M715.2 437.88l-4.65-14.26h9.28z" fill="#333"/><path d="M715.2 439.42l-5.3-16.28h10.58zm-4-15.33l4 12.25 3.97-12.26z" stroke="#333" stroke-width=".05" fill="#333"/><use xlink:href="#i" transform="matrix(1,0,0,1,648.354837446062,391.99721296089785) translate(0.0049999999999954525 20.221041666666665)"/><path d="M750.38 651.1c0 28.23-33.66 51.1-75.2 51.1-41.52 0-75.18-22.87-75.18-51.1 0-28.22 33.66-51.1 75.2-51.1 41.5 0 75.18 22.88 75.18 51.1z" stroke="#000" fill="#4d9eff"/><use xlink:href="#j" transform="matrix(1,0,0,1,622.5567759408499,620.4418266609472) translate(25.225332031249998 26.96212890625)"/><use xlink:href="#k" transform="matrix(1,0,0,1,622.5567759408499,620.4418266609472) translate(19.135830078124997 47.216875)"/><path d="M750.38 891.1c0 28.23-33.66 51.1-75.2 51.1-41.52 0-75.18-22.87-75.18-51.1 0-28.22 33.66-51.1 75.2-51.1 41.5 0 75.18 22.88 75.18 51.1z" stroke="#000" fill="#4d9eff"/><use xlink:href="#l" transform="matrix(1,0,0,1,622.5567759408499,860.4418266609472) translate(16.879853515624994 26.96212890625)"/><use xlink:href="#m" transform="matrix(1,0,0,1,622.5567759408499,860.4418266609472) translate(79.720244140625 26.96212890625)"/><use xlink:href="#n" transform="matrix(1,0,0,1,622.5567759408499,860.4418266609472) translate(25.601328124999995 47.216875)"/><path d="M1160 480c0 33.14-35.82 60-80 60s-80-26.86-80-60 35.82-60 80-60 80 26.86 80 60z" stroke="#000" fill="#4d9eff"/><use xlink:href="#o" transform="matrix(1,0,0,1,1024,444) translate(5.898520507812506 42.089501953125)"/><path d="M980 891.1c0 33.14-35.82 60-80 60s-80-26.86-80-60c0-33.13 35.82-60 80-60s80 26.87 80 60z" stroke="#000" fill="#4d9eff"/><use xlink:href="#p" transform="matrix(1,0,0,1,844,855.104566652368) translate(0.32396972656248835 42.089501953125)"/><use xlink:href="#q" transform="matrix(1,0,0,1,844,855.104566652368) translate(42.7706591796875 42.089501953125)"/><use xlink:href="#n" transform="matrix(1,0,0,1,844,855.104566652368) translate(56.8786865234375 42.089501953125)"/><path d="M673.26 730.65l-.15 1.93-.45 1.9-.75 1.8-1.02 1.68-1.27 1.5-1.48 1.26-1.67 1.03-1.8.75-1.9.45-1.95.15h-9.88v-.95h9.85l1.82-.14 1.75-.4 1.67-.7 1.54-.95 1.37-1.17 1.18-1.38.95-1.54.7-1.67.42-1.77.14-1.82v-9.14h.96zm-32.2 12.46H621.3v-.95h19.73zm-29.6 0h-19.73v-.95h19.73zm-51-12.5l.16 1.83.42 1.76.7 1.66.94 1.54 1.17 1.38 1.38 1.17 1.54.95 1.67.7 1.76.4 1.82.15h9.85v.96h-9.9l-1.92-.15-1.9-.45-1.8-.75-1.68-1.03-1.5-1.27-1.26-1.5-1.02-1.66-.75-1.8-.45-1.92-.15-1.93v-9.92h.95zm112.8-18.3h-.95v-9.17h.96zm-112.78-1.48h-.96v-19.8h.96zm0-29.7h-.96V661.3h.96zm0-29.72h-.96v-19.8h.96zm0-29.7h-.96v-8.6h.96zm0-33.87h-.96v-15.66h.96zm0-25.56h-.96v-19.8h.96zm20.98-51.14h-9.44l-1.82.14-1.76.42-1.67.68-1.54.95-1.38 1.17-1.17 1.38-.95 1.54-.7 1.67-.4 1.75-.15 1.82v9.88h-.96v-9.92l.16-1.93.45-1.9.75-1.8 1.03-1.68 1.28-1.5 1.5-1.26 1.66-1.03 1.8-.74 1.9-.47 1.94-.15h9.48zm28.38 0h-18.92v-.95h18.92zm18.9 0h-9.44v-.95h9.46z" stroke="#333" stroke-width=".05" fill="#333"/><path d="M673.26 702.64v.5h-.95v-.53z" fill="#333"/><path stroke="#333" stroke-width=".05" fill="#333"/><path d="M643.52 510.65l-14.26 4.64V506z" fill="#333"/><path d="M645.06 510.65l-16.28 5.3v-10.6zm-15.33 3.98l12.25-3.98-12.25-3.98z" stroke="#333" stroke-width=".05" fill="#333"/><use xlink:href="#f" transform="matrix(1,0,0,1,496.5493473307292,587.8345479606392) translate(0.005000000000002558 20.221041666666665)"/><path d="M346.35 315H314.9l-1.82.13-1.76.43-1.67.7-1.54.93-1.36 1.17-1.18 1.37-.94 1.55-.7 1.66-.42 1.75-.14 1.84V879.1l.14 1.8.42 1.77.7 1.67.94 1.54 1.18 1.37 1.37 1.18 1.55.94 1.67.7 1.76.42 1.82.13h268.22v.95H314.87l-1.94-.15-1.9-.46-1.8-.75-1.68-1.02-1.5-1.27-1.26-1.5-1.03-1.66-.75-1.8-.46-1.9-.15-1.95V326.5l.16-1.94.46-1.9.75-1.8 1.02-1.68 1.26-1.5 1.5-1.26 1.66-1.02 1.8-.75 1.9-.46 1.94-.16h31.5z" stroke="#333" stroke-width=".05" fill="#333"/><path d="M349.85 315h-3.5v-.96h3.5z" stroke="#333" stroke-width=".05" fill="#333"/><path d="M597.88 891.1l-14.26 4.64v-9.27z" fill="#333"/><path d="M599.42 891.1l-16.28 5.3V885.8zm-15.33 4l12.25-4-12.26-3.98z" stroke="#333" stroke-width=".05" fill="#333"/><path d="M751.38 891.1h51.74" stroke="#333" fill="none"/><path d="M751.4 891.58h-.54l.02-.47v-.47h.5z" stroke="#333" stroke-width=".05" fill="#333"/><path d="M817.88 891.1l-14.26 4.64v-9.27z" stroke="#333" fill="#333"/><path d="M675.66 839h-.95v-10h.96zm0-20h-.95v-19.97h.96zm0-29.96h-.95v-5.3h.96zm0-30.56h-.95v-19.4h.96zm0-29.4h-.95v-10h.96z" stroke="#333" stroke-width=".05" fill="#333"/><path d="M679.83 718.6h-9.28l4.64-14.27z" fill="#333"/><path d="M680.48 719.07H669.9l5.3-16.28zm-9.27-.95h7.97l-3.98-12.26z" stroke="#333" stroke-width=".05" fill="#333"/><path d="M675.66 839.5h-.97v-.5h.96z" fill="#333"/><path stroke="#333" stroke-width=".05" fill="#333"/><use xlink:href="#r" transform="matrix(1,0,0,1,606.2297935007495,758.4766075127969) translate(0.0049999999999954525 20.221041666666665)"/><path d="M1303.68 418.35h-59.34a12 12 0 0 0-12 12V468a12 12 0 0 1-12 12H1161M1303.67 418.35h3.5" stroke="#333" fill="none"/><path d="M1161 480.48h-.52l.02-.47V479.53h.5z" stroke="#333" stroke-width=".05" fill="#333"/><path d="M730.38 1271.1c0 28.23-33.66 51.1-75.2 51.1-41.52 0-75.18-22.87-75.18-51.1 0-28.22 33.66-51.1 75.2-51.1 41.5 0 75.18 22.88 75.18 51.1z" stroke="#000" fill="#4d9eff"/><use xlink:href="#s" transform="matrix(1,0,0,1,602.5567759408499,1240.4418266609473) translate(22.225537109374994 26.96212890625)"/><use xlink:href="#t" transform="matrix(1,0,0,1,602.5567759408499,1240.4418266609473) translate(64.484228515625 26.96212890625)"/><use xlink:href="#u" transform="matrix(1,0,0,1,602.5567759408499,1240.4418266609473) translate(0.9735839843750043 47.216875)"/><path d="M730.38 1091.1c0 28.23-33.66 51.1-75.2 51.1-41.52 0-75.18-22.87-75.18-51.1 0-28.22 33.66-51.1 75.2-51.1 41.5 0 75.18 22.88 75.18 51.1z" stroke="#000" fill="#4d9eff"/><use xlink:href="#v" transform="matrix(1,0,0,1,602.5567759408499,1060.4418266609473) translate(23.3249169921875 26.96212890625)"/><use xlink:href="#m" transform="matrix(1,0,0,1,602.5567759408499,1060.4418266609473) translate(73.2751806640625 26.96212890625)"/><use xlink:href="#w" transform="matrix(1,0,0,1,602.5567759408499,1060.4418266609473) translate(27.293310546875 47.216875)"/><path d="M342.38 313.62H314.9l-1.82.14-1.76.43-1.67.68-1.54.94-1.36 1.18-1.18 1.37-.94 1.54-.7 1.7-.42 1.74-.14 1.82v753.93l.14 1.8.42 1.77.7 1.67.94 1.54 1.18 1.37 1.37 1.18 1.55.94 1.67.7 1.76.42 1.82.13h248.22v.95H314.87l-1.94-.15-1.9-.46-1.8-.75-1.68-1.02-1.5-1.27-1.26-1.5-1.03-1.66-.75-1.8-.46-1.9-.15-1.95v-754l.16-1.93.46-1.9.75-1.82 1.02-1.67 1.26-1.48 1.5-1.27 1.66-1.02 1.8-.75 1.9-.46 1.94-.15h27.52z" stroke="#333" stroke-width=".05" fill="#333"/><path d="M345.88 313.62h-3.5v-.95h3.5z" stroke="#333" stroke-width=".05" fill="#333"/><path d="M577.88 1091.1l-14.26 4.64v-9.27z" fill="#333"/><path d="M579.42 1091.1l-16.28 5.3v-10.58zm-15.33 4l12.25-4-12.26-3.98zM740.5 1085.05h-9.73v-.95h9.74zm29.23 0h-19.48v-.95h19.48zm165.58 0h-9.73v-.95h9.74zm-19.47 0h-11.4v-.95h11.4z" stroke="#333" stroke-width=".05" fill="#333"/><path d="M730.78 1085.05h-.42l-.02-.17-.17-.8.6.02z" fill="#333"/><path stroke="#333" stroke-width=".05" fill="#333"/><path d="M950.08 1084.57l-14.27 4.63v-9.27z" fill="#333"/><path d="M951.62 1084.57l-16.28 5.3v-10.6zm-15.33 3.98l12.24-3.98-12.25-3.98z" stroke="#333" stroke-width=".05" fill="#333"/><use xlink:href="#f" transform="matrix(1,0,0,1,777.5323093821995,1071.9421775599772) translate(0.005000000000002558 20.221041666666665)"/><path d="M342.38 313.62H314.9l-1.82.14-1.76.43-1.67.68-1.54.94-1.36 1.18-1.18 1.37-.94 1.54-.7 1.7-.42 1.74-.14 1.82v933.93l.14 1.8.42 1.77.7 1.67.94 1.54 1.18 1.37 1.37 1.18 1.55.94 1.67.7 1.76.42 1.82.13h248.22v.95H314.87l-1.94-.15-1.9-.46-1.8-.75-1.68-1.02-1.5-1.27-1.26-1.5-1.03-1.66-.75-1.8-.46-1.9-.15-1.95v-934l.16-1.93.46-1.9.75-1.82 1.02-1.67 1.26-1.48 1.5-1.27 1.66-1.02 1.8-.75 1.9-.46 1.94-.15h27.52z" stroke="#333" stroke-width=".05" fill="#333"/><path d="M345.88 313.62h-3.5v-.95h3.5z" stroke="#333" stroke-width=".05" fill="#333"/><path d="M577.88 1271.1l-14.26 4.64v-9.27z" fill="#333"/><path d="M579.42 1271.1l-16.28 5.3v-10.58zm-15.33 4l12.25-4-12.26-3.98zM655.66 1203.12h-.95v-9.4h.96zm0-34.64h-.95v-5.3h.96zm0-15.3h-.95v-9.97h.96z" stroke="#333" stroke-width=".05" fill="#333"/><path d="M655.2 1142.7h.46v.52h-.95v-.53z" fill="#333"/><path stroke="#333" stroke-width=".05" fill="#333"/><path d="M655.2 1217.88l-4.65-14.26h9.28z" fill="#333"/><path d="M655.2 1219.42l-5.3-16.28h10.58zm-4-15.33l4 12.25 3.97-12.26z" stroke="#333" stroke-width=".05" fill="#333"/><use xlink:href="#i" transform="matrix(1,0,0,1,588.354837446062,1168.476607512797) translate(0.0049999999999954525 20.221041666666665)"/><path d="M1101.96 1091.1c0 28.23-33.66 51.1-75.2 51.1-41.5 0-75.18-22.87-75.18-51.1 0-28.22 33.66-51.1 75.2-51.1 41.52 0 75.18 22.88 75.18 51.1z" stroke="#000" fill="#4d9eff"/><use xlink:href="#l" transform="matrix(1,0,0,1,974.1383964304738,1060.4418266609473) translate(16.879853515624994 26.96212890625)"/><use xlink:href="#m" transform="matrix(1,0,0,1,974.1383964304738,1060.4418266609473) translate(79.720244140625 26.96212890625)"/><use xlink:href="#n" transform="matrix(1,0,0,1,974.1383964304738,1060.4418266609473) translate(25.601328124999995 47.216875)"/><path d="M1096.86 740c0 33.14-35.8 60-80 60-44.18 0-80-26.86-80-60s35.82-60 80-60c44.2 0 80 26.86 80 60z" stroke="#000" fill="#4d9eff"/><use xlink:href="#x" transform="matrix(1,0,0,1,960.8620208526172,704) translate(12.384453124999993 31.96212890625)"/><use xlink:href="#y" transform="matrix(1,0,0,1,960.8620208526172,704) translate(44.818203125 31.96212890625)"/><use xlink:href="#z" transform="matrix(1,0,0,1,960.8620208526172,704) translate(42.0840576171875 52.216875)"/><path d="M1026.77 800.5v222.62" stroke="#333" fill="none"/><path d="M1027.25 800.5h-.95v-.45l.95-.1z" stroke="#333" stroke-width=".05" fill="#333"/><path d="M1026.77 1037.88l-4.63-14.26h9.27z" stroke="#333" fill="#333"/><path d="M1308.73 429.6h27.5a12 12 0 0 1 12 12V728a12 12 0 0 1-12 12h-238.37M1308.74 429.6h-3.5" stroke="#333" fill="none"/><path d="M1097.88 740.48h-.53v-.95h.53z" stroke="#333" stroke-width=".05" fill="#333"/><path d="M784.28 340h9.47m9.47 0h18.93m9.47 0h18.94m9.47 0h18.93m9.47 0h18.94m9.47 0h18.93m9.47 0h18.94m9.47 0h9.47" stroke="#333" fill="none"/><path d="M784.3 340.48h-.87l.43-.6.23-.36h.2z" stroke="#333" stroke-width=".05" fill="#333"/><path d="M997.88 340l-14.26 4.63v-9.26z" stroke="#333" fill="#333"/><g><use xlink:href="#f" transform="matrix(1,0,0,1,869.8466899069053,306.1088271156258) translate(0.005000000000002558 20.221041666666665)"/></g><path d="M791.38 491.1h10.73m10.74 0h21.45m10.72 0h21.46m10.72 0h21.46m10.73 0h21.45m10.72 0h21.46m10.73 0h10.73" stroke="#333" fill="none"/><path d="M791.4 491.58h-.54l.02-.47v-.47h.5z" stroke="#333" stroke-width=".05" fill="#333"/><path d="M999.25 491.1L985 495.75v-9.27z" stroke="#333" fill="#333"/><g><use xlink:href="#f" transform="matrix(1,0,0,1,872.9751601427985,457.2133937679938) translate(0.005000000000002558 20.221041666666665)"/></g><path d="M791.35 856.57l-.15 1.93-.46 1.9-.75 1.8-1.03 1.68-1.27 1.5-1.5 1.26-1.66 1.02-1.8.75-1.9.47-1.94.15h-19.25v-.95h19.2l1.83-.14 1.76-.42 1.67-.7 1.55-.93 1.38-1.17 1.17-1.38.95-1.54.7-1.67.4-1.75.15-1.82V845.8h.95zm0-21.52h-.95v-21.5h.95zm0-32.24h-.95v-21.48h.95zm0-32.23h-.95v-21.5h.95zm0-49.9h-.95v-3.83h.95zm0-14.58h-.95v-21.5h.95zm-10.52-55.32l1.9.46 1.8.75 1.68 1 1.5 1.28 1.27 1.5 1.02 1.66.74 1.8.46 1.9.15 1.95v10.75h-.95v-10.73l-.14-1.82-.42-1.76-.7-1.67-.94-1.54-1.17-1.37-1.38-1.18-1.54-.94-1.66-.7-1.76-.42-1.82-.14h-9.15v-.95h9.2zm-20.3.8h-9.15v-.95h9.16z" stroke="#333" stroke-width=".05" fill="#333"/><path d="M751.4 651.58h-.54l.02-.47v-.47h.5z" fill="#333"/><path stroke="#333" stroke-width=".05" fill="#333"/><path d="M759.15 873.18l-14.27-4.63 14.27-4.64z" fill="#333"/><path d="M759.62 873.84l-16.27-5.3 16.27-5.28zm-13.2-5.3l12.25 4v-7.97z" stroke="#333" stroke-width=".05" fill="#333"/><g><use xlink:href="#i" transform="matrix(1,0,0,1,724.044196821986,720.6715625010919) translate(0.0049999999999954525 20.221041666666665)"/></g><defs><path d="M657 26c-323 0-524-166-541-416h195c15 169 171 246 346 246 202 0 356-106 356-265 5-203-294-238-475-293-239-73-380-191-380-389 0-252 224-419 512-419 294 0 499 171 508 396H992c-17-145-151-228-328-228-193 0-321 102-321 242 0 156 175 211 284 241l149 41c160 44 422 134 422 412 0 244-197 432-541 432" id="A"/><path d="M140 405l46-156c120 36 205 19 263-150l32-93L54-1118h197c107 313 237 620 324 950 87-331 219-637 326-950h196L606 167c-68 178-176 259-334 259-64 0-113-12-132-21" id="B"/><path d="M538 24C308 24 148-78 108-271l171-41c32 123 123 178 257 178 156 0 256-77 256-169 0-77-54-128-164-154l-186-44c-203-48-300-148-300-305 0-192 176-326 414-326 230 0 351 112 402 269l-163 42c-31-80-94-158-238-158-133 0-233 69-233 162 0 83 57 129 188 160l169 40c203 48 298 149 298 302 0 196-179 339-441 339" id="C"/><path d="M598-1118v154H368v674c0 100 37 144 132 144 23 0 62-6 92-12L629-6c-37 13-88 20-134 20-193 0-307-107-307-290v-688H20v-154h168v-266h180v266h230" id="D"/><path d="M628 24c-324 0-524-230-524-574 0-343 198-582 503-582 237 0 487 146 487 559v75H286c9 234 145 362 343 362 132 0 231-58 273-172l174 48C1024-91 857 24 628 24zM287-650h624c-17-190-120-322-304-322-192 0-309 151-320 322" id="E"/><path d="M158 0v-1118h175l1 205c55-151 181-225 313-225 147 0 245 90 285 228 53-141 190-228 352-228 194 0 352 125 352 384V0h-181v-749c0-161-105-225-225-225-151 0-243 103-243 244V0H807v-767c0-124-93-207-219-207-131 0-250 92-250 270V0H158" id="F"/><g id="a"><use transform="matrix(0.010192057291666664,0,0,0.010192057291666664,0,0)" xlink:href="#A"/><use transform="matrix(0.010192057291666664,0,0,0.010192057291666664,13.392363281249997,0)" xlink:href="#B"/><use transform="matrix(0.010192057291666664,0,0,0.010192057291666664,25.123421223958328,0)" xlink:href="#C"/><use transform="matrix(0.010192057291666664,0,0,0.010192057291666664,36.14103515624999,0)" xlink:href="#D"/><use transform="matrix(0.010192057291666664,0,0,0.010192057291666664,42.765872395833334,0)" xlink:href="#E"/><use transform="matrix(0.010192057291666664,0,0,0.010192057291666664,54.93518880208333,0)" xlink:href="#F"/></g><path d="M75-1237v-253h1217v253H837V0H531v-1237H75" id="G"/><path d="M513 14c-232 0-385-159-385-421v-711h300v659c0 139 76 222 202 222 127 0 217-86 217-234v-647h301V0H864l-4-232C797-74 683 14 513 14" id="H"/><path d="M683-1118v229H474v562c0 71 29 104 102 104 23 0 73-7 95-13l43 225C647 9 580 16 520 16 296 16 174-96 174-301v-588H20v-229h154v-266h300v266h209" id="I"/><path d="M633 22C291 22 81-200 81-553c0-345 210-579 537-579 292 0 525 185 525 567v84H378c7 183 109 277 260 277 105 0 184-46 216-132l272 51C1071-99 893 22 633 22zM380-669h474c-15-146-94-237-233-237-143 0-229 99-241 237" id="J"/><path d="M42 0l360-574-338-544h324c72 124 151 261 209 394 58-134 140-271 215-394h318L785-570 1146 0H824c-79-136-169-280-234-425C528-278 439-134 360 0H42" id="K"/><g id="b"><use transform="matrix(0.014127604166666669,0,0,0.014127604166666669,0,0)" xlink:href="#G"/><use transform="matrix(0.014127604166666669,0,0,0.014127604166666669,17.179166666666667,0)" xlink:href="#H"/><use transform="matrix(0.014127604166666669,0,0,0.014127604166666669,35.191861979166674,0)" xlink:href="#I"/><use transform="matrix(0.014127604166666669,0,0,0.014127604166666669,45.50501302083334,0)" xlink:href="#J"/><use transform="matrix(0.014127604166666669,0,0,0.014127604166666669,62.16145833333334,0)" xlink:href="#K"/></g><path d="M49 0l509-1490h400L1480 0h-339l-115-346H497L386 0H49zm524-585h374c-75-213-124-402-192-666-66 268-110 453-182 666" id="L"/><path d="M128 418v-1536h295v188h14c41-89 129-202 319-202 248 0 453 193 453 575 0 372-197 576-455 576-183 0-275-108-317-198h-9v597H128zm534-640c156 0 240-139 240-336 0-196-83-334-240-334-154 0-241 131-241 334 0 202 88 336 241 336" id="M"/><path d="M428-1490V0H128v-1490h300" id="N"/><path d="M128 0v-1118h300V0H128zm150-1264c-91 0-165-68-165-154 0-85 74-154 165-154 90 0 165 69 165 154 0 86-75 154-165 154" id="O"/><path d="M628 22C291 22 81-210 81-554c0-346 210-578 547-578 265 0 455 142 497 372l-279 52c-25-116-99-188-215-188-160 0-244 139-244 341 0 200 84 341 244 341 116 0 193-74 217-195l279 51C1085-123 896 22 628 22" id="P"/><path d="M440 22C227 22 68-92 68-313c0-250 202-322 422-343 195-21 271-24 271-105 0-95-63-149-175-149-116 0-187 57-211 129l-275-46c57-194 237-305 487-305 240 0 474 108 474 379V0H777v-155h-10C713-51 605 22 440 22zm85-211c140 0 238-93 238-211v-121c-37 26-156 42-222 51-111 16-185 59-185 149 0 87 70 132 169 132" id="Q"/><path d="M628 22C291 22 81-210 81-554c0-346 210-578 547-578 336 0 547 232 547 578 0 344-211 576-547 576zm0-236c160 0 242-146 242-341 0-197-82-341-242-341S387-753 387-555c0 195 81 341 241 341" id="R"/><path d="M428-647V0H128v-1118h283l4 231c63-156 176-245 348-245 232 0 384 159 384 421V0H847v-659c0-139-76-222-202-222-128 0-217 86-217 234" id="S"/><g id="c"><use transform="matrix(0.014127604166666669,0,0,0.014127604166666669,0,0)" xlink:href="#L"/><use transform="matrix(0.014127604166666669,0,0,0.014127604166666669,21.601106770833336,0)" xlink:href="#M"/><use transform="matrix(0.014127604166666669,0,0,0.014127604166666669,39.83984375000001,0)" xlink:href="#M"/><use transform="matrix(0.014127604166666669,0,0,0.014127604166666669,58.078580729166674,0)" xlink:href="#N"/><use transform="matrix(0.014127604166666669,0,0,0.014127604166666669,65.91940104166667,0)" xlink:href="#O"/><use transform="matrix(0.014127604166666669,0,0,0.014127604166666669,73.76022135416667,0)" xlink:href="#P"/><use transform="matrix(0.014127604166666669,0,0,0.014127604166666669,91.06653645833333,0)" xlink:href="#Q"/><use transform="matrix(0.014127604166666669,0,0,0.014127604166666669,107.8642578125,0)" xlink:href="#I"/><use transform="matrix(0.014127604166666669,0,0,0.014127604166666669,118.45996093749999,0)" xlink:href="#O"/><use transform="matrix(0.014127604166666669,0,0,0.014127604166666669,126.30078124999999,0)" xlink:href="#R"/><use transform="matrix(0.014127604166666669,0,0,0.014127604166666669,144.04505208333333,0)" xlink:href="#S"/></g><path d="M180 0v-1490h510c348 0 508 194 508 460 0 198-88 351-276 417L1256 0h-220L726-579c-117 2-238 0-356 1V0H180zm190-747h312c235 0 327-108 327-283 0-177-92-293-329-293H370v576" id="T"/><path d="M611 442c-248 0-391-105-460-228l146-94c47 65 117 165 314 165 178 0 307-82 307-266v-224h-17C863-141 792-18 576-18c-268 0-472-195-472-546 0-346 197-568 476-568 216 0 288 133 326 193h17v-179h175V29c0 289-215 413-487 413zm-5-620c203 0 314-146 314-390 0-237-108-403-314-403-213 0-319 180-319 403 0 230 109 390 319 390" id="U"/><path d="M158 0v-1118h180V0H158zm91-1301c-68 0-125-53-125-119s57-119 125-119c69 0 126 53 126 119s-57 119-126 119" id="V"/><path d="M158 0v-1118h174v172h12c41-113 157-188 290-188 26 0 70 2 91 3v181c-11-2-60-10-108-10-161 0-279 109-279 260V0H158" id="W"/><g id="d"><use transform="matrix(0.008173828125000001,0,0,0.008173828125000001,0,0)" xlink:href="#T"/><use transform="matrix(0.008173828125000001,0,0,0.008173828125000001,10.527890625000001,0)" xlink:href="#E"/><use transform="matrix(0.008173828125000001,0,0,0.008173828125000001,20.287441406250004,0)" xlink:href="#U"/><use transform="matrix(0.008173828125000001,0,0,0.008173828125000001,30.553769531250005,0)" xlink:href="#V"/><use transform="matrix(0.008173828125000001,0,0,0.008173828125000001,34.60798828125,0)" xlink:href="#C"/><use transform="matrix(0.008173828125000001,0,0,0.008173828125000001,43.443896484375,0)" xlink:href="#D"/><use transform="matrix(0.008173828125000001,0,0,0.008173828125000001,48.756884765625,0)" xlink:href="#E"/><use transform="matrix(0.008173828125000001,0,0,0.008173828125000001,58.516435546875,0)" xlink:href="#W"/></g><path d="M481 0L54-1118h197c107 314 236 620 325 951 87-331 217-637 324-951h197L670 0H481" id="X"/><path d="M471 26C259 26 90-98 90-318c0-256 228-303 435-329 202-27 287-16 287-108 0-139-79-219-234-219-161 0-248 86-283 164l-173-57c86-203 278-265 451-265 150 0 419 46 419 395V0H815v-152h-12C765-73 660 26 471 26zm31-159c199 0 310-134 310-271v-155c-30 35-226 55-295 64-131 17-246 59-246 186 0 116 97 176 231 176" id="Y"/><path d="M338-1490V0H158v-1490h180" id="Z"/><path d="M577 24c-279 0-473-224-473-580 0-354 195-576 474-576 218 0 287 134 324 193h14v-551h180V0H922v-173h-20C865-111 790 24 577 24zm27-161c203 0 314-172 314-421 0-247-108-413-314-413-212 0-317 181-317 413 0 235 108 421 317 421" id="aa"/><path d="M613 24c-304 0-509-231-509-576 0-350 205-580 509-580 305 0 511 230 511 580 0 345-206 576-511 576zm0-161c226 0 329-195 329-415 0-222-103-419-329-419-223 0-326 196-326 419 0 220 103 415 326 415" id="ab"/><path d="M338-670V0H158v-1118h173l1 207c72-158 192-221 342-221 226 0 378 139 378 422V0H872v-695c0-172-96-275-252-275-161 0-282 109-282 300" id="ac"/><g id="e"><use transform="matrix(0.008173828125000001,0,0,0.008173828125000001,0,0)" xlink:href="#X"/><use transform="matrix(0.008173828125000001,0,0,0.008173828125000001,9.326337890625,0)" xlink:href="#Y"/><use transform="matrix(0.008173828125000001,0,0,0.008173828125000001,18.726240234375002,0)" xlink:href="#Z"/><use transform="matrix(0.008173828125000001,0,0,0.008173828125000001,22.780458984375002,0)" xlink:href="#V"/><use transform="matrix(0.008173828125000001,0,0,0.008173828125000001,26.834677734375003,0)" xlink:href="#aa"/><use transform="matrix(0.008173828125000001,0,0,0.008173828125000001,37.084658203125,0)" xlink:href="#Y"/><use transform="matrix(0.008173828125000001,0,0,0.008173828125000001,46.484560546875,0)" xlink:href="#D"/><use transform="matrix(0.008173828125000001,0,0,0.008173828125000001,51.961025390625004,0)" xlink:href="#V"/><use transform="matrix(0.008173828125000001,0,0,0.008173828125000001,56.015244140625,0)" xlink:href="#ab"/><use transform="matrix(0.008173828125000001,0,0,0.008173828125000001,66.052705078125,0)" xlink:href="#ac"/></g><path d="M174-520v-126l944-476v196L406-588v12l712 338v194" id="ad"/><path d="M613 24c-304 0-509-231-509-576 0-350 205-580 509-580 216 0 392 114 453 309l-173 49c-33-115-133-197-280-197-223 0-326 196-326 419 0 220 103 415 326 415 150 0 252-85 285-206l172 49C1010-95 832 24 613 24" id="ae"/><path d="M537 14c-226 0-379-139-379-422v-710h180v695c0 172 97 275 253 275 160 0 281-109 281-300v-670h181V0H879v-209C806-46 684 14 537 14" id="af"/><path d="M1181-520L237-44v-194l712-338v-12L237-926v-196l944 476v126" id="ag"/><g id="f"><use transform="matrix(0.010192057291666666,0,0,0.010192057291666666,0,0)" xlink:href="#ad"/><use transform="matrix(0.010192057291666666,0,0,0.010192057291666666,13.810237630208333,0)" xlink:href="#ad"/><use transform="matrix(0.010192057291666666,0,0,0.010192057291666666,27.620475260416665,0)" xlink:href="#V"/><use transform="matrix(0.010192057291666666,0,0,0.010192057291666666,32.67573567708333,0)" xlink:href="#ac"/><use transform="matrix(0.010192057291666666,0,0,0.010192057291666666,45.00812499999999,0)" xlink:href="#ae"/><use transform="matrix(0.010192057291666666,0,0,0.010192057291666666,56.932832031249994,0)" xlink:href="#Z"/><use transform="matrix(0.010192057291666666,0,0,0.010192057291666666,61.988092447916664,0)" xlink:href="#af"/><use transform="matrix(0.010192057291666666,0,0,0.010192057291666666,74.33067382812499,0)" xlink:href="#aa"/><use transform="matrix(0.010192057291666666,0,0,0.010192057291666666,87.11151367187499,0)" xlink:href="#E"/><use transform="matrix(0.010192057291666666,0,0,0.010192057291666666,99.28083007812499,0)" xlink:href="#ag"/><use transform="matrix(0.010192057291666666,0,0,0.010192057291666666,113.09106770833333,0)" xlink:href="#ag"/></g><path d="M763 24c-353 0-583-224-583-531v-983h190v968c0 214 149 370 393 370 243 0 391-156 391-370v-968h190v983c0 307-230 531-581 531" id="ah"/><g id="g"><use transform="matrix(0.010192057291666664,0,0,0.010192057291666664,0,0)" xlink:href="#ah"/><use transform="matrix(0.010192057291666664,0,0,0.010192057291666664,15.532695312499996,0)" xlink:href="#C"/><use transform="matrix(0.010192057291666664,0,0,0.010192057291666664,26.55030924479166,0)" xlink:href="#E"/><use transform="matrix(0.010192057291666664,0,0,0.010192057291666664,38.71962565104165,0)" xlink:href="#W"/></g><path d="M180 0v-1490h190v1322h690V0H180" id="ai"/><g id="h"><use transform="matrix(0.008173828125000001,0,0,0.008173828125000001,0,0)" xlink:href="#ai"/><use transform="matrix(0.008173828125000001,0,0,0.008173828125000001,9.465292968750001,0)" xlink:href="#ab"/><use transform="matrix(0.008173828125000001,0,0,0.008173828125000001,19.50275390625,0)" xlink:href="#U"/><use transform="matrix(0.008173828125000001,0,0,0.008173828125000001,29.76908203125,0)" xlink:href="#V"/><use transform="matrix(0.008173828125000001,0,0,0.008173828125000001,33.82330078125,0)" xlink:href="#ac"/></g><path d="M65 0l393-574-370-544h210c88 136 192 297 267 435 67-142 176-302 264-435h206L661-564 1053 0H844c-94-144-206-310-287-458C484-308 366-142 273 0H65" id="aj"/><g id="i"><use transform="matrix(0.010192057291666666,0,0,0.010192057291666666,0,0)" xlink:href="#ad"/><use transform="matrix(0.010192057291666666,0,0,0.010192057291666666,13.810237630208333,0)" xlink:href="#ad"/><use transform="matrix(0.010192057291666666,0,0,0.010192057291666666,27.620475260416665,0)" xlink:href="#E"/><use transform="matrix(0.010192057291666666,0,0,0.010192057291666666,39.320957031249996,0)" xlink:href="#aj"/><use transform="matrix(0.010192057291666666,0,0,0.010192057291666666,51.12335937499999,0)" xlink:href="#D"/><use transform="matrix(0.010192057291666666,0,0,0.010192057291666666,57.74819661458333,0)" xlink:href="#E"/><use transform="matrix(0.010192057291666666,0,0,0.010192057291666666,69.91751302083333,0)" xlink:href="#ac"/><use transform="matrix(0.010192057291666666,0,0,0.010192057291666666,82.24990234375,0)" xlink:href="#aa"/><use transform="matrix(0.010192057291666666,0,0,0.010192057291666666,95.0307421875,0)" xlink:href="#C"/><use transform="matrix(0.010192057291666666,0,0,0.010192057291666666,106.04835611979166,0)" xlink:href="#ag"/><use transform="matrix(0.010192057291666666,0,0,0.010192057291666666,119.85859374999998,0)" xlink:href="#ag"/></g><path d="M338-670V0H158v-1490h180v566c73-149 190-208 336-208 226 0 379 139 379 422V0H872v-695c0-172-96-275-252-275-161 0-282 109-282 300" id="ak"/><g id="j"><use transform="matrix(0.008173828125000001,0,0,0.008173828125000001,0,0)" xlink:href="#A"/><use transform="matrix(0.008173828125000001,0,0,0.008173828125000001,10.740410156250002,0)" xlink:href="#E"/><use transform="matrix(0.008173828125000001,0,0,0.008173828125000001,20.663437499999997,0)" xlink:href="#Y"/><use transform="matrix(0.008173828125000001,0,0,0.008173828125000001,30.06333984375,0)" xlink:href="#W"/><use transform="matrix(0.008173828125000001,0,0,0.008173828125000001,36.087451171875,0)" xlink:href="#ae"/><use transform="matrix(0.008173828125000001,0,0,0.008173828125000001,45.650830078125004,0)" xlink:href="#ak"/></g><path d="M98-1322v-168h1126v168H757V0H567v-1322H98" id="al"/><g id="k"><use transform="matrix(0.008173828125000001,0,0,0.008173828125000001,0,0)" xlink:href="#al"/><use transform="matrix(0.008173828125000001,0,0,0.008173828125000001,9.571552734375,0)" xlink:href="#af"/><use transform="matrix(0.008173828125000001,0,0,0.008173828125000001,19.470058593750004,0)" xlink:href="#D"/><use transform="matrix(0.008173828125000001,0,0,0.008173828125000001,24.783046875000004,0)" xlink:href="#ab"/><use transform="matrix(0.008173828125000001,0,0,0.008173828125000001,34.820507812500004,0)" xlink:href="#W"/><use transform="matrix(0.008173828125000001,0,0,0.008173828125000001,41.384091796875,0)" xlink:href="#V"/><use transform="matrix(0.008173828125000001,0,0,0.008173828125000001,45.43831054687501,0)" xlink:href="#Y"/><use transform="matrix(0.008173828125000001,0,0,0.008173828125000001,54.838212890625,0)" xlink:href="#Z"/><use transform="matrix(0.008173828125000001,0,0,0.008173828125000001,58.892431640625006,0)" xlink:href="#C"/></g><g id="l"><use transform="matrix(0.008173828125000001,0,0,0.008173828125000001,0,0)" xlink:href="#ae"/><use transform="matrix(0.008173828125000001,0,0,0.008173828125000001,9.563378906250001,0)" xlink:href="#ak"/><use transform="matrix(0.008173828125000001,0,0,0.008173828125000001,19.461884765625,0)" xlink:href="#ab"/><use transform="matrix(0.008173828125000001,0,0,0.008173828125000001,29.499345703125005,0)" xlink:href="#ab"/><use transform="matrix(0.008173828125000001,0,0,0.008173828125000001,39.536806640625,0)" xlink:href="#C"/><use transform="matrix(0.008173828125000001,0,0,0.008173828125000001,48.37271484375,0)" xlink:href="#E"/></g><use transform="matrix(0.008173828125000001,0,0,0.008173828125000001,0,0)" xlink:href="#Y" id="m"/><g id="n"><use transform="matrix(0.008173828125000001,0,0,0.008173828125000001,0,0)" xlink:href="#D"/><use transform="matrix(0.008173828125000001,0,0,0.008173828125000001,5.4764648437500005,0)" xlink:href="#af"/><use transform="matrix(0.008173828125000001,0,0,0.008173828125000001,15.374970703125001,0)" xlink:href="#D"/><use transform="matrix(0.008173828125000001,0,0,0.008173828125000001,20.687958984375,0)" xlink:href="#ab"/><use transform="matrix(0.008173828125000001,0,0,0.008173828125000001,30.725419921875,0)" xlink:href="#W"/><use transform="matrix(0.008173828125000001,0,0,0.008173828125000001,37.28900390625,0)" xlink:href="#V"/><use transform="matrix(0.008173828125000001,0,0,0.008173828125000001,41.343222656250006,0)" xlink:href="#Y"/><use transform="matrix(0.008173828125000001,0,0,0.008173828125000001,50.743125000000006,0)" xlink:href="#Z"/></g><path d="M52 0l541-1490h220L1361 0h-200l-149-416H398L254 0H52zm404-582h497c-103-290-145-390-251-756-108 377-145 460-246 756" id="am"/><g id="o"><use transform="matrix(0.008173828125000001,0,0,0.008173828125000001,0,0)" xlink:href="#am"/><use transform="matrix(0.008173828125000001,0,0,0.008173828125000001,11.549619140625001,0)" xlink:href="#af"/><use transform="matrix(0.008173828125000001,0,0,0.008173828125000001,21.448125000000005,0)" xlink:href="#D"/><use transform="matrix(0.008173828125000001,0,0,0.008173828125000001,26.924589843750006,0)" xlink:href="#ak"/><use transform="matrix(0.008173828125000001,0,0,0.008173828125000001,36.823095703125006,0)" xlink:href="#E"/><use transform="matrix(0.008173828125000001,0,0,0.008173828125000001,46.582646484375005,0)" xlink:href="#ac"/><use transform="matrix(0.008173828125000001,0,0,0.008173828125000001,56.472978515625,0)" xlink:href="#D"/><use transform="matrix(0.008173828125000001,0,0,0.008173828125000001,61.949443359375,0)" xlink:href="#V"/><use transform="matrix(0.008173828125000001,0,0,0.008173828125000001,66.003662109375,0)" xlink:href="#ae"/><use transform="matrix(0.008173828125000001,0,0,0.008173828125000001,75.73051757812499,0)" xlink:href="#Y"/><use transform="matrix(0.008173828125000001,0,0,0.008173828125000001,85.13041992187499,0)" xlink:href="#D"/><use transform="matrix(0.008173828125000001,0,0,0.008173828125000001,90.443408203125,0)" xlink:href="#E"/></g><g id="p"><use transform="matrix(0.008173828125000001,0,0,0.008173828125000001,0,0)" xlink:href="#A"/><use transform="matrix(0.008173828125000001,0,0,0.008173828125000001,10.740410156250002,0)" xlink:href="#D"/><use transform="matrix(0.008173828125000001,0,0,0.008173828125000001,16.298613281250002,0)" xlink:href="#Y"/><use transform="matrix(0.008173828125000001,0,0,0.008173828125000001,25.698515625000006,0)" xlink:href="#W"/><use transform="matrix(0.008173828125000001,0,0,0.008173828125000001,32.26209960937501,0)" xlink:href="#D"/></g><use transform="matrix(0.008173828125000001,0,0,0.008173828125000001,0,0)" xlink:href="#Y" id="q"/><g id="r"><use transform="matrix(0.010192057291666666,0,0,0.010192057291666666,0,0)" xlink:href="#ad"/><use transform="matrix(0.010192057291666666,0,0,0.010192057291666666,13.810237630208333,0)" xlink:href="#ad"/><use transform="matrix(0.010192057291666666,0,0,0.010192057291666666,27.620475260416665,0)" xlink:href="#V"/><use transform="matrix(0.010192057291666666,0,0,0.010192057291666666,32.67573567708333,0)" xlink:href="#ac"/><use transform="matrix(0.010192057291666666,0,0,0.010192057291666666,45.00812499999999,0)" xlink:href="#ae"/><use transform="matrix(0.010192057291666666,0,0,0.010192057291666666,56.932832031249994,0)" xlink:href="#Z"/><use transform="matrix(0.010192057291666666,0,0,0.010192057291666666,61.988092447916664,0)" xlink:href="#af"/><use transform="matrix(0.010192057291666666,0,0,0.010192057291666666,74.33067382812499,0)" xlink:href="#aa"/><use transform="matrix(0.010192057291666666,0,0,0.010192057291666666,87.11151367187499,0)" xlink:href="#E"/><use transform="matrix(0.010192057291666666,0,0,0.010192057291666666,99.28083007812499,0)" xlink:href="#C"/><use transform="matrix(0.010192057291666666,0,0,0.010192057291666666,110.29844401041666,0)" xlink:href="#ag"/><use transform="matrix(0.010192057291666666,0,0,0.010192057291666666,124.108681640625,0)" xlink:href="#ag"/></g><path d="M158 0v-1490h180v865h22l478-493h223L593-638 1096 0H865L456-523 338-412V0H158" id="an"/><g id="s"><use transform="matrix(0.008173828125000001,0,0,0.008173828125000001,0,0)" xlink:href="#al"/><use transform="matrix(0.008173828125000001,0,0,0.008173828125000001,9.579726562500001,0)" xlink:href="#Y"/><use transform="matrix(0.008173828125000001,0,0,0.008173828125000001,18.979628906250003,0)" xlink:href="#an"/><use transform="matrix(0.008173828125000001,0,0,0.008173828125000001,27.791015625000004,0)" xlink:href="#E"/></g><g id="t"><use transform="matrix(0.008173828125000001,0,0,0.008173828125000001,0,0)" xlink:href="#Y"/><use transform="matrix(0.008173828125000001,0,0,0.008173828125000001,9.399902343750002,0)" xlink:href="#ac"/></g><g id="u"><use transform="matrix(0.008173828125000001,0,0,0.008173828125000001,0,0)" xlink:href="#Y"/><use transform="matrix(0.008173828125000001,0,0,0.008173828125000001,9.399902343750002,0)" xlink:href="#C"/><use transform="matrix(0.008173828125000001,0,0,0.008173828125000001,18.235810546875,0)" xlink:href="#C"/><use transform="matrix(0.008173828125000001,0,0,0.008173828125000001,27.071718750000002,0)" xlink:href="#E"/><use transform="matrix(0.008173828125000001,0,0,0.008173828125000001,36.83126953125,0)" xlink:href="#C"/><use transform="matrix(0.008173828125000001,0,0,0.008173828125000001,45.667177734375,0)" xlink:href="#C"/><use transform="matrix(0.008173828125000001,0,0,0.008173828125000001,54.5030859375,0)" xlink:href="#E"/><use transform="matrix(0.008173828125000001,0,0,0.008173828125000001,64.26263671875,0)" xlink:href="#F"/><use transform="matrix(0.008173828125000001,0,0,0.008173828125000001,78.926484375,0)" xlink:href="#E"/><use transform="matrix(0.008173828125000001,0,0,0.008173828125000001,88.68603515625,0)" xlink:href="#ac"/><use transform="matrix(0.008173828125000001,0,0,0.008173828125000001,98.5763671875,0)" xlink:href="#D"/></g><g id="v"><use transform="matrix(0.008173828125000001,0,0,0.008173828125000001,0,0)" xlink:href="#ai"/><use transform="matrix(0.008173828125000001,0,0,0.008173828125000001,9.465292968750001,0)" xlink:href="#E"/><use transform="matrix(0.008173828125000001,0,0,0.008173828125000001,19.3883203125,0)" xlink:href="#Y"/><use transform="matrix(0.008173828125000001,0,0,0.008173828125000001,28.78822265625,0)" xlink:href="#W"/><use transform="matrix(0.008173828125000001,0,0,0.008173828125000001,35.351806640625,0)" xlink:href="#ac"/></g><g id="w"><use transform="matrix(0.008173828125000001,0,0,0.008173828125000001,0,0)" xlink:href="#Z"/><use transform="matrix(0.008173828125000001,0,0,0.008173828125000001,4.05421875,0)" xlink:href="#E"/><use transform="matrix(0.008173828125000001,0,0,0.008173828125000001,13.813769531250001,0)" xlink:href="#C"/><use transform="matrix(0.008173828125000001,0,0,0.008173828125000001,22.649677734375004,0)" xlink:href="#C"/><use transform="matrix(0.008173828125000001,0,0,0.008173828125000001,31.485585937500005,0)" xlink:href="#ab"/><use transform="matrix(0.008173828125000001,0,0,0.008173828125000001,41.523046875000006,0)" xlink:href="#ac"/></g><path d="M789 20c-398 0-667-293-667-764 0-473 273-766 655-766 315 0 558 198 612 487h-196c-61-191-204-311-415-311-262 0-471 207-471 590 0 380 208 588 482 588 249 0 420-165 425-427H828v-166h572v163c0 370-256 606-611 606" id="ao"/><g id="x"><use transform="matrix(0.008173828125000001,0,0,0.008173828125000001,0,0)" xlink:href="#ao"/><use transform="matrix(0.008173828125000001,0,0,0.008173828125000001,12.489609375000002,0)" xlink:href="#E"/><use transform="matrix(0.008173828125000001,0,0,0.008173828125000001,22.249160156250003,0)" xlink:href="#D"/></g><g id="y"><use transform="matrix(0.008173828125000001,0,0,0.008173828125000001,0,0)" xlink:href="#D"/><use transform="matrix(0.008173828125000001,0,0,0.008173828125000001,5.4764648437500005,0)" xlink:href="#af"/><use transform="matrix(0.008173828125000001,0,0,0.008173828125000001,15.374970703125001,0)" xlink:href="#D"/><use transform="matrix(0.008173828125000001,0,0,0.008173828125000001,20.687958984375,0)" xlink:href="#ab"/><use transform="matrix(0.008173828125000001,0,0,0.008173828125000001,30.725419921875,0)" xlink:href="#W"/><use transform="matrix(0.008173828125000001,0,0,0.008173828125000001,37.28900390625,0)" xlink:href="#V"/><use transform="matrix(0.008173828125000001,0,0,0.008173828125000001,41.343222656250006,0)" xlink:href="#Y"/><use transform="matrix(0.008173828125000001,0,0,0.008173828125000001,50.743125000000006,0)" xlink:href="#Z"/></g><g id="z"><use transform="matrix(0.008173828125000001,0,0,0.008173828125000001,0,0)" xlink:href="#ai"/><use transform="matrix(0.008173828125000001,0,0,0.008173828125000001,9.465292968750001,0)" xlink:href="#V"/><use transform="matrix(0.008173828125000001,0,0,0.008173828125000001,13.519511718750001,0)" xlink:href="#C"/><use transform="matrix(0.008173828125000001,0,0,0.008173828125000001,22.355419921875004,0)" xlink:href="#D"/></g></defs></g></svg>